<mxfile host="app.diagrams.net" modified="2024-01-22T22:36:47.260Z" agent="Mozilla/5.0 (Windows NT 10.0; Win64; x64) AppleWebKit/537.36 (KHTML, like Gecko) Chrome/120.0.0.0 Safari/537.36 Edg/120.0.0.0" etag="qWPhnJDFsgwJ_on5nhRF" version="22.1.21" type="github">
  <diagram name="Trang-1" id="2xF7641bT8unKtolHw_o">
    <mxGraphModel dx="2258" dy="-1574" grid="1" gridSize="10" guides="1" tooltips="1" connect="1" arrows="1" fold="1" page="1" pageScale="1" pageWidth="827" pageHeight="1169" math="0" shadow="0">
      <root>
        <mxCell id="0" />
        <mxCell id="1" parent="0" />
        <mxCell id="U_OctbfxqjT16fh36vqD-102" value="" style="rounded=0;whiteSpace=wrap;html=1;" vertex="1" parent="1">
          <mxGeometry x="-240" y="2720" width="1200" height="780" as="geometry" />
        </mxCell>
        <mxCell id="U_OctbfxqjT16fh36vqD-103" value="" style="ellipse;html=1;shape=startState;fillColor=#000000;strokeColor=#ff0000;" vertex="1" parent="1">
          <mxGeometry x="540" y="2740" width="30" height="30" as="geometry" />
        </mxCell>
        <mxCell id="U_OctbfxqjT16fh36vqD-104" value="" style="edgeStyle=orthogonalEdgeStyle;html=1;verticalAlign=bottom;endArrow=open;endSize=8;strokeColor=#ff0000;rounded=0;entryX=0.5;entryY=0;entryDx=0;entryDy=0;" edge="1" parent="1" source="U_OctbfxqjT16fh36vqD-103" target="U_OctbfxqjT16fh36vqD-106">
          <mxGeometry relative="1" as="geometry">
            <mxPoint x="555" y="2815" as="targetPoint" />
          </mxGeometry>
        </mxCell>
        <mxCell id="U_OctbfxqjT16fh36vqD-105" style="edgeStyle=orthogonalEdgeStyle;rounded=0;orthogonalLoop=1;jettySize=auto;html=1;entryX=0;entryY=0.5;entryDx=0;entryDy=0;" edge="1" parent="1" source="U_OctbfxqjT16fh36vqD-106" target="U_OctbfxqjT16fh36vqD-114">
          <mxGeometry relative="1" as="geometry" />
        </mxCell>
        <mxCell id="U_OctbfxqjT16fh36vqD-106" value="Đăng nhập" style="rhombus;whiteSpace=wrap;html=1;" vertex="1" parent="1">
          <mxGeometry x="510" y="2820" width="90" height="100" as="geometry" />
        </mxCell>
        <mxCell id="U_OctbfxqjT16fh36vqD-107" style="edgeStyle=orthogonalEdgeStyle;rounded=0;orthogonalLoop=1;jettySize=auto;html=1;entryX=0.5;entryY=0;entryDx=0;entryDy=0;" edge="1" parent="1" source="U_OctbfxqjT16fh36vqD-108" target="U_OctbfxqjT16fh36vqD-127">
          <mxGeometry relative="1" as="geometry" />
        </mxCell>
        <mxCell id="U_OctbfxqjT16fh36vqD-108" value="Trang chủ&amp;nbsp;" style="rounded=1;whiteSpace=wrap;html=1;" vertex="1" parent="1">
          <mxGeometry x="492.5" y="2995" width="120" height="60" as="geometry" />
        </mxCell>
        <mxCell id="U_OctbfxqjT16fh36vqD-109" style="edgeStyle=orthogonalEdgeStyle;rounded=0;orthogonalLoop=1;jettySize=auto;html=1;entryX=1;entryY=0.5;entryDx=0;entryDy=0;" edge="1" parent="1" source="U_OctbfxqjT16fh36vqD-106" target="U_OctbfxqjT16fh36vqD-111">
          <mxGeometry relative="1" as="geometry">
            <mxPoint x="554" y="3020" as="targetPoint" />
          </mxGeometry>
        </mxCell>
        <mxCell id="U_OctbfxqjT16fh36vqD-110" style="edgeStyle=orthogonalEdgeStyle;rounded=0;orthogonalLoop=1;jettySize=auto;html=1;entryX=0.5;entryY=0;entryDx=0;entryDy=0;" edge="1" parent="1" source="U_OctbfxqjT16fh36vqD-111" target="U_OctbfxqjT16fh36vqD-118">
          <mxGeometry relative="1" as="geometry" />
        </mxCell>
        <mxCell id="U_OctbfxqjT16fh36vqD-111" value="Thất bại&amp;nbsp;" style="rounded=0;whiteSpace=wrap;html=1;" vertex="1" parent="1">
          <mxGeometry x="240" y="2847.5" width="102.5" height="45" as="geometry" />
        </mxCell>
        <mxCell id="U_OctbfxqjT16fh36vqD-112" value="Email ,SDT" style="rounded=1;whiteSpace=wrap;html=1;" vertex="1" parent="1">
          <mxGeometry x="373.5" y="2820" width="116.5" height="40" as="geometry" />
        </mxCell>
        <mxCell id="U_OctbfxqjT16fh36vqD-113" style="edgeStyle=orthogonalEdgeStyle;rounded=0;orthogonalLoop=1;jettySize=auto;html=1;entryX=1;entryY=0.5;entryDx=0;entryDy=0;" edge="1" parent="1" source="U_OctbfxqjT16fh36vqD-114" target="U_OctbfxqjT16fh36vqD-108">
          <mxGeometry relative="1" as="geometry">
            <Array as="points">
              <mxPoint x="830" y="3025" />
            </Array>
          </mxGeometry>
        </mxCell>
        <mxCell id="U_OctbfxqjT16fh36vqD-114" value="Thành công&amp;nbsp;" style="rounded=0;whiteSpace=wrap;html=1;" vertex="1" parent="1">
          <mxGeometry x="775" y="2845" width="105" height="50" as="geometry" />
        </mxCell>
        <mxCell id="U_OctbfxqjT16fh36vqD-115" value="Email ,SDT" style="rounded=1;whiteSpace=wrap;html=1;" vertex="1" parent="1">
          <mxGeometry x="612.5" y="2820" width="116.5" height="40" as="geometry" />
        </mxCell>
        <mxCell id="U_OctbfxqjT16fh36vqD-116" value="Bạn đăng nhập thành công với tư cách nhân viên" style="rounded=1;whiteSpace=wrap;html=1;" vertex="1" parent="1">
          <mxGeometry x="645" y="2990" width="172" height="30" as="geometry" />
        </mxCell>
        <mxCell id="U_OctbfxqjT16fh36vqD-117" style="edgeStyle=orthogonalEdgeStyle;rounded=0;orthogonalLoop=1;jettySize=auto;html=1;entryX=1;entryY=0.5;entryDx=0;entryDy=0;" edge="1" parent="1" source="U_OctbfxqjT16fh36vqD-118" target="U_OctbfxqjT16fh36vqD-123">
          <mxGeometry relative="1" as="geometry" />
        </mxCell>
        <mxCell id="U_OctbfxqjT16fh36vqD-151" style="edgeStyle=orthogonalEdgeStyle;rounded=0;orthogonalLoop=1;jettySize=auto;html=1;entryX=0.5;entryY=0;entryDx=0;entryDy=0;" edge="1" parent="1" source="U_OctbfxqjT16fh36vqD-118" target="U_OctbfxqjT16fh36vqD-120">
          <mxGeometry relative="1" as="geometry" />
        </mxCell>
        <mxCell id="U_OctbfxqjT16fh36vqD-118" value="Thử lại&amp;nbsp;" style="rounded=0;whiteSpace=wrap;html=1;" vertex="1" parent="1">
          <mxGeometry x="167.5" y="2923" width="105" height="50" as="geometry" />
        </mxCell>
        <mxCell id="U_OctbfxqjT16fh36vqD-119" style="edgeStyle=orthogonalEdgeStyle;rounded=0;orthogonalLoop=1;jettySize=auto;html=1;entryX=0;entryY=0.5;entryDx=0;entryDy=0;" edge="1" parent="1" source="U_OctbfxqjT16fh36vqD-120" target="U_OctbfxqjT16fh36vqD-108">
          <mxGeometry relative="1" as="geometry" />
        </mxCell>
        <mxCell id="U_OctbfxqjT16fh36vqD-120" value="Thành công&amp;nbsp;" style="rounded=0;whiteSpace=wrap;html=1;" vertex="1" parent="1">
          <mxGeometry x="167.5" y="3000" width="105" height="50" as="geometry" />
        </mxCell>
        <mxCell id="U_OctbfxqjT16fh36vqD-121" value="Bạn đăng nhập thành công với tư cách nhân viên" style="rounded=1;whiteSpace=wrap;html=1;" vertex="1" parent="1">
          <mxGeometry x="308" y="2990" width="172" height="30" as="geometry" />
        </mxCell>
        <mxCell id="U_OctbfxqjT16fh36vqD-122" style="edgeStyle=orthogonalEdgeStyle;rounded=0;orthogonalLoop=1;jettySize=auto;html=1;entryX=0.5;entryY=0;entryDx=0;entryDy=0;" edge="1" parent="1" source="U_OctbfxqjT16fh36vqD-123" target="U_OctbfxqjT16fh36vqD-125">
          <mxGeometry relative="1" as="geometry" />
        </mxCell>
        <mxCell id="U_OctbfxqjT16fh36vqD-123" value="Thất bại" style="rounded=0;whiteSpace=wrap;html=1;" vertex="1" parent="1">
          <mxGeometry x="-95" y="2923" width="105" height="50" as="geometry" />
        </mxCell>
        <mxCell id="U_OctbfxqjT16fh36vqD-124" value="!!!Bạn còn 3 lần đăng nhập trước khi bị khóa TK tạm thời" style="rounded=1;whiteSpace=wrap;html=1;" vertex="1" parent="1">
          <mxGeometry x="20" y="2890" width="135" height="50" as="geometry" />
        </mxCell>
        <mxCell id="U_OctbfxqjT16fh36vqD-125" value="" style="ellipse;html=1;shape=endState;fillColor=#000000;strokeColor=#ff0000;" vertex="1" parent="1">
          <mxGeometry x="-57" y="3020" width="30" height="30" as="geometry" />
        </mxCell>
        <mxCell id="U_OctbfxqjT16fh36vqD-126" style="edgeStyle=orthogonalEdgeStyle;rounded=0;orthogonalLoop=1;jettySize=auto;html=1;entryX=1;entryY=0.5;entryDx=0;entryDy=0;" edge="1" parent="1" source="U_OctbfxqjT16fh36vqD-127" target="U_OctbfxqjT16fh36vqD-131">
          <mxGeometry relative="1" as="geometry" />
        </mxCell>
        <mxCell id="U_OctbfxqjT16fh36vqD-127" value="Quán lý khách hàng&amp;nbsp;" style="rounded=0;whiteSpace=wrap;html=1;" vertex="1" parent="1">
          <mxGeometry x="452.5" y="3120" width="200" height="40" as="geometry" />
        </mxCell>
        <mxCell id="U_OctbfxqjT16fh36vqD-128" style="edgeStyle=orthogonalEdgeStyle;rounded=0;orthogonalLoop=1;jettySize=auto;html=1;entryX=1;entryY=0.5;entryDx=0;entryDy=0;exitX=0.5;exitY=1;exitDx=0;exitDy=0;" edge="1" parent="1" source="U_OctbfxqjT16fh36vqD-131" target="U_OctbfxqjT16fh36vqD-133">
          <mxGeometry relative="1" as="geometry">
            <mxPoint x="230" y="3190" as="sourcePoint" />
            <mxPoint x="130" y="3265" as="targetPoint" />
            <Array as="points">
              <mxPoint x="241" y="3190" />
              <mxPoint x="240" y="3225" />
            </Array>
          </mxGeometry>
        </mxCell>
        <mxCell id="U_OctbfxqjT16fh36vqD-129" style="edgeStyle=orthogonalEdgeStyle;rounded=0;orthogonalLoop=1;jettySize=auto;html=1;entryX=1;entryY=0.5;entryDx=0;entryDy=0;" edge="1" parent="1" source="U_OctbfxqjT16fh36vqD-131" target="U_OctbfxqjT16fh36vqD-145">
          <mxGeometry relative="1" as="geometry" />
        </mxCell>
        <mxCell id="U_OctbfxqjT16fh36vqD-130" style="edgeStyle=orthogonalEdgeStyle;rounded=0;orthogonalLoop=1;jettySize=auto;html=1;entryX=0;entryY=0.5;entryDx=0;entryDy=0;exitX=0.5;exitY=1;exitDx=0;exitDy=0;" edge="1" parent="1" source="U_OctbfxqjT16fh36vqD-131" target="U_OctbfxqjT16fh36vqD-135">
          <mxGeometry relative="1" as="geometry" />
        </mxCell>
        <mxCell id="U_OctbfxqjT16fh36vqD-131" value="Sản phẩm&amp;nbsp;" style="rounded=0;whiteSpace=wrap;html=1;" vertex="1" parent="1">
          <mxGeometry x="170" y="3120" width="142" height="40" as="geometry" />
        </mxCell>
        <mxCell id="U_OctbfxqjT16fh36vqD-132" style="edgeStyle=orthogonalEdgeStyle;rounded=0;orthogonalLoop=1;jettySize=auto;html=1;entryX=1;entryY=0.5;entryDx=0;entryDy=0;" edge="1" parent="1" source="U_OctbfxqjT16fh36vqD-133" target="U_OctbfxqjT16fh36vqD-137">
          <mxGeometry relative="1" as="geometry" />
        </mxCell>
        <mxCell id="U_OctbfxqjT16fh36vqD-133" value="Thông tin danh sách khách hàng đã mua sản phẩm" style="rounded=0;whiteSpace=wrap;html=1;" vertex="1" parent="1">
          <mxGeometry x="-40" y="3240" width="160" height="50" as="geometry" />
        </mxCell>
        <mxCell id="U_OctbfxqjT16fh36vqD-134" style="edgeStyle=orthogonalEdgeStyle;rounded=0;orthogonalLoop=1;jettySize=auto;html=1;entryX=0;entryY=0.5;entryDx=0;entryDy=0;" edge="1" parent="1" source="U_OctbfxqjT16fh36vqD-135" target="U_OctbfxqjT16fh36vqD-140">
          <mxGeometry relative="1" as="geometry" />
        </mxCell>
        <mxCell id="U_OctbfxqjT16fh36vqD-135" value="Đơn hàng" style="rounded=0;whiteSpace=wrap;html=1;" vertex="1" parent="1">
          <mxGeometry x="339.62" y="3240" width="130" height="50" as="geometry" />
        </mxCell>
        <mxCell id="U_OctbfxqjT16fh36vqD-136" style="edgeStyle=orthogonalEdgeStyle;rounded=0;orthogonalLoop=1;jettySize=auto;html=1;entryX=0;entryY=0.5;entryDx=0;entryDy=0;exitX=0.5;exitY=1;exitDx=0;exitDy=0;" edge="1" parent="1" source="U_OctbfxqjT16fh36vqD-137" target="U_OctbfxqjT16fh36vqD-146">
          <mxGeometry relative="1" as="geometry" />
        </mxCell>
        <mxCell id="U_OctbfxqjT16fh36vqD-137" value="Thông tin chi tiết khách hàng" style="rounded=0;whiteSpace=wrap;html=1;" vertex="1" parent="1">
          <mxGeometry x="-225" y="3290" width="130" height="50" as="geometry" />
        </mxCell>
        <mxCell id="U_OctbfxqjT16fh36vqD-139" style="edgeStyle=orthogonalEdgeStyle;rounded=0;orthogonalLoop=1;jettySize=auto;html=1;entryX=0;entryY=0.5;entryDx=0;entryDy=0;" edge="1" parent="1" source="U_OctbfxqjT16fh36vqD-140" target="U_OctbfxqjT16fh36vqD-144">
          <mxGeometry relative="1" as="geometry">
            <Array as="points">
              <mxPoint x="664" y="3335" />
            </Array>
          </mxGeometry>
        </mxCell>
        <mxCell id="U_OctbfxqjT16fh36vqD-149" style="edgeStyle=orthogonalEdgeStyle;rounded=0;orthogonalLoop=1;jettySize=auto;html=1;entryX=1;entryY=0.5;entryDx=0;entryDy=0;" edge="1" parent="1" source="U_OctbfxqjT16fh36vqD-140" target="U_OctbfxqjT16fh36vqD-148">
          <mxGeometry relative="1" as="geometry">
            <Array as="points">
              <mxPoint x="666" y="3335" />
            </Array>
          </mxGeometry>
        </mxCell>
        <mxCell id="U_OctbfxqjT16fh36vqD-140" value="Đơn hàng chi tiết&amp;nbsp;" style="rounded=0;whiteSpace=wrap;html=1;" vertex="1" parent="1">
          <mxGeometry x="601" y="3240" width="130" height="50" as="geometry" />
        </mxCell>
        <mxCell id="U_OctbfxqjT16fh36vqD-142" style="edgeStyle=orthogonalEdgeStyle;rounded=0;orthogonalLoop=1;jettySize=auto;html=1;entryX=1;entryY=0.5;entryDx=0;entryDy=0;exitX=0;exitY=0.5;exitDx=0;exitDy=0;" edge="1" parent="1" target="U_OctbfxqjT16fh36vqD-145" source="U_OctbfxqjT16fh36vqD-148">
          <mxGeometry relative="1" as="geometry">
            <mxPoint x="473" y="3335" as="sourcePoint" />
            <Array as="points">
              <mxPoint x="170" y="3335" />
              <mxPoint x="170" y="3180" />
            </Array>
          </mxGeometry>
        </mxCell>
        <mxCell id="U_OctbfxqjT16fh36vqD-143" style="edgeStyle=orthogonalEdgeStyle;rounded=0;orthogonalLoop=1;jettySize=auto;html=1;entryX=1;entryY=0.5;entryDx=0;entryDy=0;exitX=0.5;exitY=1;exitDx=0;exitDy=0;" edge="1" parent="1" source="U_OctbfxqjT16fh36vqD-144" target="U_OctbfxqjT16fh36vqD-146">
          <mxGeometry relative="1" as="geometry" />
        </mxCell>
        <mxCell id="U_OctbfxqjT16fh36vqD-144" value="Đơn bị hủy&amp;nbsp;" style="rounded=0;whiteSpace=wrap;html=1;" vertex="1" parent="1">
          <mxGeometry x="735" y="3310" width="130" height="50" as="geometry" />
        </mxCell>
        <mxCell id="U_OctbfxqjT16fh36vqD-145" value="Số lượng sản phẩm đã bán ra" style="rounded=0;whiteSpace=wrap;html=1;" vertex="1" parent="1">
          <mxGeometry x="-70" y="3160" width="142" height="40" as="geometry" />
        </mxCell>
        <mxCell id="U_OctbfxqjT16fh36vqD-146" value="Báo cáo chi tiết" style="rounded=0;whiteSpace=wrap;html=1;" vertex="1" parent="1">
          <mxGeometry x="185.49" y="3390" width="142" height="40" as="geometry" />
        </mxCell>
        <mxCell id="U_OctbfxqjT16fh36vqD-147" value="" style="ellipse;html=1;shape=endState;fillColor=#000000;strokeColor=#ff0000;" vertex="1" parent="1">
          <mxGeometry x="242.5" y="3450" width="30" height="30" as="geometry" />
        </mxCell>
        <mxCell id="U_OctbfxqjT16fh36vqD-150" style="edgeStyle=orthogonalEdgeStyle;rounded=0;orthogonalLoop=1;jettySize=auto;html=1;entryX=1;entryY=0.5;entryDx=0;entryDy=0;" edge="1" parent="1" source="U_OctbfxqjT16fh36vqD-148" target="U_OctbfxqjT16fh36vqD-146">
          <mxGeometry relative="1" as="geometry">
            <Array as="points">
              <mxPoint x="495" y="3410" />
            </Array>
          </mxGeometry>
        </mxCell>
        <mxCell id="U_OctbfxqjT16fh36vqD-148" value="Đơn đã thành công" style="rounded=0;whiteSpace=wrap;html=1;" vertex="1" parent="1">
          <mxGeometry x="430" y="3310" width="130" height="50" as="geometry" />
        </mxCell>
      </root>
    </mxGraphModel>
  </diagram>
</mxfile>
